<svg xmlns="http://www.w3.org/2000/svg" width="1527" height="1507" viewBox="0 0 1527 1507">
  <g fill="none" fill-rule="evenodd" stroke="#FFF" transform="translate(1 1)" vector-effect="non-scaling-stroke">
    <g stroke-width="3.612" transform="translate(0 .2)">
      <path vector-effect="non-scaling-stroke" stroke-dasharray="10.768 10.768" d="M1431.2876,7.957 L0.2706,1424.606"/>
      <path vector-effect="non-scaling-stroke" stroke-dasharray="10.755 10.755" d="M4.1187,0.0786 L1462.4587,1446.7816"/>
    </g>
    <path vector-effect="non-scaling-stroke" stroke-dasharray="9.957 9.957" stroke-width="3.5" d="M1333.0615,1332.9233 L103.4055,1332.9233"/>
    <path vector-effect="non-scaling-stroke" stroke-dasharray="10.061 10.061" stroke-width="3.5" d="M93.4492,1317.8315 L93.4492,95.4045"/>
    <path vector-effect="non-scaling-stroke" stroke-dasharray="9.957 9.957" stroke-width="3.5" d="M108.3843,85.3433 L1338.0403,85.3433"/>
    <path vector-effect="non-scaling-stroke" stroke-dasharray="10.061 10.061" stroke-width="3.5" d="M1347.9966,100.4351 L1347.9966,1322.8621"/>
    <path vector-effect="non-scaling-stroke" stroke-width="3.5" d="M98.4277,1332.9233 L93.4487,1332.9233 L93.4487,1327.8923 M93.4487,90.3743 L93.4487,85.3433 L98.4277,85.3433 M1343.0187,85.3433 L1347.9967,85.3433 L1347.9967,90.3743 M1347.9967,1327.8923 L1347.9967,1332.9233 L1343.0187,1332.9233"/>
    <g stroke-width="3.612" transform="translate(1172 1152.2)" vector-effect="non-scaling-stroke">
      <path vector-effect="non-scaling-stroke" stroke-dasharray="10.609 10.609" d="M350.8596 191.5065C343.1396 277.5505 273.3476 345.7115 186.5916 350.8785M160.0962 350.4843C74.0522 342.7643 5.8912 272.9723.7242 186.2163M1.1187 159.7212C8.8387 73.6772 78.6307 5.5162 165.3857.3482M191.8816.7433C277.9256 8.4633 346.0866 78.2553 351.2546 165.0113"/>
      <path d="M181.2927,351.1152 C179.5317,351.1672 177.7627,351.1932 175.9887,351.1932 C174.2147,351.1932 172.4467,351.1672 170.6847,351.1152 M0.4877,180.9172 C0.4357,179.1562 0.4087,177.3882 0.4087,175.6142 C0.4087,173.8392 0.4357,172.0712 0.4877,170.3102 M170.6847,0.1122 C172.4467,0.0602 174.2147,0.0332 175.9887,0.0332 C177.7627,0.0332 179.5317,0.0602 181.2927,0.1122 M351.4907,170.3102 C351.5427,172.0712 351.5687,173.8392 351.5687,175.6142 C351.5687,177.3882 351.5427,179.1562 351.4907,180.9172"/>
    </g>
  </g>
</svg>
