<svg xmlns="http://www.w3.org/2000/svg" xmlns:xlink="http://www.w3.org/1999/xlink" width="81" height="81" viewBox="0 0 81 81">
  <defs>
    <polygon id="x-a" points=".147 .51 80.636 .51 80.636 81 .147 81"/>
  </defs>
  <g fill="none" fill-rule="evenodd" transform="translate(0 -.354)">
    <path fill="#FF6E5C" d="M80.6362,6.4875 C80.6362,8.0175 80.0522,9.5465 78.8852,10.7145 L10.3502,79.2495 C8.0162,81.5835 4.2312,81.5835 1.8972,79.2495 C-0.4368,76.9145 -0.4368,73.1305 1.8972,70.7965 L70.4322,2.2605 C72.7662,-0.0735 76.5512,-0.0735 78.8852,2.2605 C80.0522,3.4285 80.6362,4.9575 80.6362,6.4875"/>
    <mask id="x-b" fill="#fff">
      <use xlink:href="#x-a"/>
    </mask>
    <path fill="#FF6E5C" d="M80.6362,75.0227 C80.6362,76.5527 80.0522,78.0817 78.8852,79.2497 C76.5512,81.5837 72.7662,81.5837 70.4322,79.2497 L1.8972,10.7137 C-0.4368,8.3797 -0.4368,4.5957 1.8972,2.2607 C4.2312,-0.0733 8.0162,-0.0733 10.3502,2.2607 L78.8852,70.7957 C80.0522,71.9637 80.6362,73.4927 80.6362,75.0227" mask="url(#x-b)"/>
  </g>
</svg>
