<svg xmlns="http://www.w3.org/2000/svg" width="240" height="60" viewBox="0 0 240 60">
  <g fill="#241F21" fill-rule="evenodd" transform="translate(-2)">
    <path d="M2.0005836 11.6722615C2.0005836 5.81717308 6.7308028 1.08695388 12.5858912 1.08695388 16.7680972 1.08695388 20.2869188 3.25016388 22.0463296 6.53824308L18.4121368 8.55723908C17.2007392 6.45171468 15.2394288 5.12494588 12.5858912 5.12494588 9.009384 5.12494588 6.2116324 8.09575428 6.2116324 11.6722615 6.2116324 15.2487687 9.009384 18.2195771 12.5858912 18.2195771 15.2394288 18.2195771 17.2007392 16.8928083 18.4121368 14.7872839L22.0463296 16.8062799C20.2869188 20.0943591 16.7680972 22.2575691 12.5858912 22.2575691 6.7308028 22.2575691 2.0005836 17.5273499 2.0005836 11.6722615zM24.5556532 21.9114555L24.5556532.856211483 28.5071168.856211483 28.5071168 8.70145308C29.4300864 7.72079788 30.8433836 7.17278468 32.4297376 7.17278468 36.0639304 7.17278468 38.1982976 9.71095108 38.1982976 13.5470435L38.1982976 21.9114555 34.246834 21.9114555 34.246834 14.2104279C34.246834 12.1625891 33.3527072 10.7781347 31.5644536 10.7781347 30.2376848 10.7781347 29.1128156 11.4703619 28.5071168 12.4221743L28.5071168 21.9114555 24.5556532 21.9114555zM46.3319672 3.19247828C46.3319672 4.57693268 45.207098 5.70180188 43.7938008 5.70180188 42.4381892 5.70180188 41.2844772 4.57693268 41.2844772 3.19247828 41.2844772 1.80802388 42.4381892.683154683 43.7938008.683154683 45.207098.683154683 46.3319672 1.80802388 46.3319672 3.19247828zM41.8324904 21.9114555L41.8324904 7.49005548 45.783954 7.49005548 45.783954 21.9114555 41.8324904 21.9114555zM63.1473196 18.0753631C61.9070792 20.5558439 59.3112272 22.2287263 56.311576 22.2287263 52.0428416 22.2287263 48.668234 19.0560183 48.668234 14.7007555 48.668234 10.3454927 52.0428416 7.17278468 56.311576 7.17278468 59.3112272 7.17278468 61.9070792 8.84566708 63.1473196 11.3261479L59.7150264 13.1720871C59.1381704 11.8453183 57.89793 10.8646631 56.311576 10.8646631 54.2348944 10.8646631 52.6485404 12.4798599 52.6485404 14.7007555 52.6485404 16.9216511 54.2348944 18.5368479 56.311576 18.5368479 57.89793 18.5368479 59.1381704 17.5561927 59.7150264 16.2294239L63.1473196 18.0753631zM75.5785664 20.8442719C74.7421252 21.6807131 73.4153564 22.2287263 71.886688 22.2287263 67.6179536 22.2287263 64.7625164 18.7387475 64.7625164 14.7007555 64.7625164 10.6627635 67.6179536 7.17278468 71.886688 7.17278468 73.4153564 7.17278468 74.7421252 7.72079788 75.5785664 8.52839628L75.5785664 7.49005548 79.53003 7.49005548 79.53003 21.9114555 75.5785664 21.9114555 75.5785664 20.8442719zM68.858194 14.7007555C68.858194 16.8351227 70.3291768 18.6233763 72.463544 18.6233763 73.9922124 18.6233763 74.915182 17.9599919 75.5785664 17.0370223L75.5785664 12.3356459C74.915182 11.4415191 73.9922124 10.7781347 72.463544 10.7781347 70.3291768 10.7781347 68.858194 12.5663883 68.858194 14.7007555zM97.2971948 21.1038571C97.2971948 26.2090327 93.374574 27.7953867 89.7403812 27.7953867 87.3752716 27.7953867 84.9813192 27.1608451 83.3661224 25.7763907L85.5293324 22.8344251C86.7695728 23.8727659 88.2405556 24.3342507 89.6826956 24.3342507 91.4421064 24.3342507 93.3457312 23.3535955 93.3457312 21.1326999L93.3457312 20.2385731C92.50929 21.0750143 91.211364 21.6230275 89.62501 21.6230275 85.4716468 21.6230275 82.3854672 18.4503195 82.41431 14.4123275 82.4431528 10.3743355 85.4716468 7.17278468 89.62501 7.17278468 91.211364 7.17278468 92.50929 7.72079788 93.3457312 8.52839628L93.3457312 7.49005548 97.2971948 7.49005548 97.2971948 21.1038571zM86.5099876 14.4123275C86.5099876 16.5178519 88.0963416 18.0465203 90.2307088 18.0465203 91.7593772 18.0465203 92.7111896 17.3542931 93.3457312 16.4313235L93.3457312 12.3356459C92.7111896 11.4415191 91.7593772 10.7781347 90.2307088 10.7781347 88.0963416 10.7781347 86.5099876 12.2779603 86.5099876 14.4123275zM115.323945 14.7007555C115.323945 18.9118043 111.920494 22.2287263 107.738288 22.2287263 103.556082 22.2287263 100.152632 18.9118043 100.152632 14.7007555 100.152632 10.4897067 103.556082 7.17278468 107.738288 7.17278468 111.920494 7.17278468 115.323945 10.4897067 115.323945 14.7007555zM104.132938 14.7007555C104.132938 16.9216511 105.661607 18.5368479 107.738288 18.5368479 109.81497 18.5368479 111.314796 16.9216511 111.314796 14.7007555 111.314796 12.4798599 109.81497 10.8646631 107.738288 10.8646631 105.661607 10.8646631 104.132938 12.4798599 104.132938 14.7007555zM125.043968 21.9114555L125.043968 1.43306748 129.226174 1.43306748 129.226174 17.9311491 137.994386 17.9311491 137.994386 21.9114555 125.043968 21.9114555zM139.321154 14.4411703C139.321154 10.1724359 142.522705 6.91319948 146.906811 6.91319948 150.685218 6.91319948 154.00214 9.33599468 154.00214 14.0085283 154.00214 14.3546419 154.00214 14.7584411 153.944454 15.3641399L143.157247 15.3641399C143.387989 17.2966075 145.089714 18.3637911 146.993339 18.3637911 148.781593 18.3637911 150.079519 17.5273499 150.71406 16.5466947L153.656026 18.7387475C152.329257 20.6712151 149.99299 21.9691411 146.964496 21.9691411 142.666919 21.9691411 139.321154 18.9983327 139.321154 14.4411703zM146.79144 10.1724359C145.320457 10.1724359 143.676417 10.9223487 143.301461 12.6817595L150.050676 12.6817595C149.704562 10.9800343 148.262422 10.1724359 146.79144 10.1724359zM166.808343 20.5846867C165.971902 21.4211279 164.645133 21.9691411 163.116464 21.9691411 158.84773 21.9691411 155.992293 18.4791623 155.992293 14.4411703 155.992293 10.4031783 158.84773 6.91319948 163.116464 6.91319948 164.645133 6.91319948 165.971902 7.46121268 166.808343 8.26881108L166.808343 7.23047028 170.759806 7.23047028 170.759806 21.6518703 166.808343 21.6518703 166.808343 20.5846867zM160.08797 14.4411703C160.08797 16.5755375 161.558953 18.3637911 163.69332 18.3637911 165.221989 18.3637911 166.144958 17.7004067 166.808343 16.7774371L166.808343 12.0760607C166.144958 11.1819339 165.221989 10.5185495 163.69332 10.5185495 161.558953 10.5185495 160.08797 12.3068031 160.08797 14.4411703zM174.567056 21.6518703L174.567056 7.23047028 178.51852 7.23047028 178.51852 8.96103828C179.008847 7.92269748 180.364459 7.05741348 181.864284 7.05741348 182.585354 7.05741348 183.219896 7.20162748 183.537167 7.31699868L182.931468 11.0377199C182.758411 10.9800343 182.296926 10.8646631 181.72007 10.8646631 180.624044 10.8646631 179.210747 11.3261479 178.51852 12.4798599L178.51852 21.6518703 174.567056 21.6518703zM185.72922 21.6518703L185.72922 7.23047028 189.680683 7.23047028 189.680683 8.44186788C190.603653 7.46121268 192.01695 6.91319948 193.603304 6.91319948 197.237497 6.91319948 199.371864 9.45136588 199.371864 13.2874583L199.371864 21.6518703 195.4204 21.6518703 195.4204 13.9508427C195.4204 11.9030039 194.526274 10.5185495 192.73802 10.5185495 191.411251 10.5185495 190.286382 11.2107767 189.680683 12.1625891L189.680683 21.6518703 185.72922 21.6518703zM207.505534 2.93289308C207.505534 4.31734748 206.380664 5.44221668 204.967367 5.44221668 203.611756 5.44221668 202.458044 4.31734748 202.458044 2.93289308 202.458044 1.54843868 203.611756.423569483 204.967367.423569483 206.380664.423569483 207.505534 1.54843868 207.505534 2.93289308zM203.006057 21.6518703L203.006057 7.23047028 206.95752 7.23047028 206.95752 21.6518703 203.006057 21.6518703zM210.76477 21.6518703L210.76477 7.23047028 214.716234 7.23047028 214.716234 8.44186788C215.639203 7.46121268 217.0525 6.91319948 218.638854 6.91319948 222.273047 6.91319948 224.407414 9.45136588 224.407414 13.2874583L224.407414 21.6518703 220.455951 21.6518703 220.455951 13.9508427C220.455951 11.9030039 219.561824 10.5185495 217.77357 10.5185495 216.446802 10.5185495 215.321932 11.2107767 214.716234 12.1625891L214.716234 21.6518703 210.76477 21.6518703zM242.001522 20.8442719C242.001522 25.9494475 238.078902 27.5358015 234.444709 27.5358015 232.079599 27.5358015 229.685647 26.9012599 228.07045 25.5168055L230.23366 22.5748399C231.4739 23.6131807 232.944883 24.0746655 234.387023 24.0746655 236.146434 24.0746655 238.050059 23.0940103 238.050059 20.8731147L238.050059 19.9789879C237.213618 20.8154291 235.915692 21.3634423 234.329338 21.3634423 230.175974 21.3634423 227.089795 18.1907343 227.118638 14.1527423 227.14748 10.1147503 230.175974 6.91319948 234.329338 6.91319948 235.915692 6.91319948 237.213618 7.46121268 238.050059 8.26881108L238.050059 7.23047028 242.001522 7.23047028 242.001522 20.8442719zM231.214315 14.1527423C231.214315 16.2582667 232.800669 17.7869351 234.935036 17.7869351 236.463705 17.7869351 237.415517 17.0947079 238.050059 16.1717383L238.050059 12.0760607C237.415517 11.1819339 236.463705 10.5185495 234.935036 10.5185495 232.800669 10.5185495 231.214315 12.0183751 231.214315 14.1527423zM3.2119812 54.1288631L3.2119812 33.6504751 15.9604988 33.6504751 15.9604988 37.6307815 7.3941872 37.6307815 7.3941872 41.8418303 14.2299308 41.8418303 14.2299308 45.8221367 7.3941872 45.8221367 7.3941872 50.1485567 15.9604988 50.1485567 15.9604988 54.1288631 3.2119812 54.1288631zM17.4026388 54.1288631L22.998142 47.0623771 17.5468528 39.7074631 22.2193864 39.7074631 25.4786228 44.1204115 28.7378592 39.7074631 33.4392356 39.7074631 27.9879464 47.0623771 33.5834496 54.1288631 28.8532304 54.1288631 25.5074656 49.8601287 22.1617008 54.1288631 17.4026388 54.1288631zM48.2932776 50.2927707C47.0530372 52.7732515 44.4571852 54.4461339 41.457534 54.4461339 37.1887996 54.4461339 33.814192 51.2734259 33.814192 46.9181631 33.814192 42.5629003 37.1887996 39.3901923 41.457534 39.3901923 44.4571852 39.3901923 47.0530372 41.0630747 48.2932776 43.5435555L44.8609844 45.3894947C44.2841284 44.0627259 43.043888 43.0820707 41.457534 43.0820707 39.3808524 43.0820707 37.7944984 44.6972675 37.7944984 46.9181631 37.7944984 49.1390587 39.3808524 50.7542555 41.457534 50.7542555 43.043888 50.7542555 44.2841284 49.7736003 44.8609844 48.4468315L48.2932776 50.2927707zM50.831444 54.1288631L50.831444 33.0736191 54.7829076 33.0736191 54.7829076 40.9188607C55.7058772 39.9382055 57.1191744 39.3901923 58.7055284 39.3901923 62.3397212 39.3901923 64.4740884 41.9283587 64.4740884 45.7644511L64.4740884 54.1288631 60.5226248 54.1288631 60.5226248 46.4278355C60.5226248 44.3799967 59.628498 42.9955423 57.8402444 42.9955423 56.5134756 42.9955423 55.3886064 43.6877695 54.7829076 44.6395819L54.7829076 54.1288631 50.831444 54.1288631zM78.0013616 53.0616795C77.1649204 53.8981207 75.8381516 54.4461339 74.3094832 54.4461339 70.0407488 54.4461339 67.1853116 50.9561551 67.1853116 46.9181631 67.1853116 42.8801711 70.0407488 39.3901923 74.3094832 39.3901923 75.8381516 39.3901923 77.1649204 39.9382055 78.0013616 40.7458039L78.0013616 39.7074631 81.9528252 39.7074631 81.9528252 54.1288631 78.0013616 54.1288631 78.0013616 53.0616795zM71.2809892 46.9181631C71.2809892 49.0525303 72.751972 50.8407839 74.8863392 50.8407839 76.4150076 50.8407839 77.3379772 50.1773995 78.0013616 49.2544299L78.0013616 44.5530535C77.3379772 43.6589267 76.4150076 42.9955423 74.8863392 42.9955423 72.751972 42.9955423 71.2809892 44.7837959 71.2809892 46.9181631zM85.7600748 54.1288631L85.7600748 39.7074631 89.7115384 39.7074631 89.7115384 40.9188607C90.634508 39.9382055 92.0478052 39.3901923 93.6341592 39.3901923 97.268352 39.3901923 99.4027192 41.9283587 99.4027192 45.7644511L99.4027192 54.1288631 95.4512556 54.1288631 95.4512556 46.4278355C95.4512556 44.3799967 94.5571288 42.9955423 92.7688752 42.9955423 91.4421064 42.9955423 90.3172372 43.6877695 89.7115384 44.6395819L89.7115384 54.1288631 85.7600748 54.1288631zM116.996827 53.3212647C116.996827 58.4264403 113.074206 60.0127943 109.440014 60.0127943 107.074904 60.0127943 104.680952 59.3782527 103.065755 57.9937983L105.228965 55.0518327C106.469205 56.0901735 107.940188 56.5516583 109.382328 56.5516583 111.141739 56.5516583 113.045364 55.5710031 113.045364 53.3501075L113.045364 52.4559807C112.208922 53.2924219 110.910996 53.8404351 109.324642 53.8404351 105.171279 53.8404351 102.0851 50.6677271 102.113942 46.6297351 102.142785 42.5917431 105.171279 39.3901923 109.324642 39.3901923 110.910996 39.3901923 112.208922 39.9382055 113.045364 40.7458039L113.045364 39.7074631 116.996827 39.7074631 116.996827 53.3212647zM106.20962 46.6297351C106.20962 48.7352595 107.795974 50.2639279 109.930341 50.2639279 111.45901 50.2639279 112.410822 49.5717007 113.045364 48.6487311L113.045364 44.5530535C112.410822 43.6589267 111.45901 42.9955423 109.930341 42.9955423 107.795974 42.9955423 106.20962 44.4953679 106.20962 46.6297351zM119.881107 46.9181631C119.881107 42.6494287 123.082658 39.3901923 127.466764 39.3901923 131.24517 39.3901923 134.562092 41.8129875 134.562092 46.4855211 134.562092 46.8316347 134.562092 47.2354339 134.504407 47.8411327L123.7172 47.8411327C123.947942 49.7736003 125.649667 50.8407839 127.553292 50.8407839 129.341546 50.8407839 130.639472 50.0043427 131.274013 49.0236875L134.215979 51.2157403C132.88921 53.1482079 130.552943 54.4461339 127.524449 54.4461339 123.226872 54.4461339 119.881107 51.4753255 119.881107 46.9181631zM127.351392 42.6494287C125.88041 42.6494287 124.23637 43.3993415 123.861414 45.1587523L130.610629 45.1587523C130.264515 43.4570271 128.822375 42.6494287 127.351392 42.6494287z"/>
  </g>
</svg>
