<svg xmlns="http://www.w3.org/2000/svg" xmlns:xlink="http://www.w3.org/1999/xlink" width="35" height="185" viewBox="0 0 35 185">
  <defs>
    <polygon id="mobile-logo-a" points="0 .722 34.697 .722 34.697 38.09 0 38.09"/>
  </defs>
  <g fill="none" fill-rule="evenodd" transform="translate(0 -1)">
    <g transform="translate(0 .278)">
      <mask id="mobile-logo-b" fill="#fff">
        <use xlink:href="#mobile-logo-a"/>
      </mask>
      <path fill="#241F21" d="M0.0012,19.6084 C-0.1088,9.3254 8.1782,0.8354 18.5752,0.7234 C25.2182,0.6524 31.1032,3.9934 34.4802,9.0974 L25.8812,15.3464 C24.4082,12.6824 21.8622,10.9004 18.6852,10.9334 C14.2072,10.9814 10.9242,14.4924 10.9772,19.4904 C11.0302,24.4854 14.3882,27.9264 18.8662,27.8784 C22.0432,27.8444 24.5522,26.0064 25.9662,23.3124 L34.6972,29.3734 C31.4302,34.5514 25.6182,38.0174 18.9752,38.0884 C8.5772,38.2004 0.1102,29.8904 0.0012,19.6084" mask="url(#mobile-logo-b)"/>
    </g>
    <polygon fill="#241F21" points="12.986 68.926 17.464 68.926 17.464 116.071 33.524 116.071 33.524 120.344 12.986 120.344"/>
    <g fill="#FF6E5C" transform="translate(1 152.278)">
      <path d="M30.1216,33 C29.5066,33 28.8916,32.764 28.4216,32.294 L0.8616,4.656 C-0.0774,3.714 -0.0774,2.188 0.8616,1.247 C1.7996,0.306 3.3206,0.306 4.2606,1.247 L31.8216,28.885 C32.7596,29.827 32.7596,31.352 31.8216,32.294 C31.3526,32.764 30.7366,33 30.1216,33"/>
      <path d="M2.5608,33 C1.9458,33 1.3298,32.764 0.8608,32.294 C-0.0772,31.352 -0.0772,29.827 0.8608,28.885 L28.4218,1.247 C29.3598,0.306 30.8828,0.306 31.8208,1.247 C32.7588,2.188 32.7588,3.714 31.8208,4.656 L4.2608,32.294 C3.7918,32.764 3.1758,33 2.5608,33"/>
    </g>
  </g>
</svg>
