<svg xmlns="http://www.w3.org/2000/svg" xmlns:xlink="http://www.w3.org/1999/xlink"><defs><path id="x-a" d="M.147.51h80.489V81H.147z"/><path id="mobile-logo-a" d="M0 .722h34.697V38.09H0z"/></defs><symbol id="bg-x" viewBox="0 0 1527 1507"><g fill="none" vector-effect="non-scaling-stroke"><g stroke-width="3.612"><path vector-effect="non-scaling-stroke" stroke-dasharray="10.768 10.768" d="M1432.288 9.157L1.27 1425.806"/><path vector-effect="non-scaling-stroke" stroke-dasharray="10.755 10.755" d="M5.119 1.279l1458.34 1446.703"/></g><path vector-effect="non-scaling-stroke" stroke-dasharray="9.957 9.957" stroke-width="3.5" d="M1334.062 1333.923H104.406"/><path vector-effect="non-scaling-stroke" stroke-dasharray="10.061 10.061" stroke-width="3.5" d="M94.45 1318.832V96.403"/><path vector-effect="non-scaling-stroke" stroke-dasharray="9.957 9.957" stroke-width="3.5" d="M109.384 86.343H1339.04"/><path vector-effect="non-scaling-stroke" stroke-dasharray="10.061 10.061" stroke-width="3.5" d="M1348.997 101.435v1222.427"/><path vector-effect="non-scaling-stroke" stroke-width="3.5" d="M99.428 1333.923h-4.98v-5.03m0-1237.519v-5.03h4.98m1244.59 0h4.979v5.03m0 1237.518v5.031h-4.978"/><g stroke-width="3.612" vector-effect="non-scaling-stroke"><path vector-effect="non-scaling-stroke" stroke-dasharray="10.609 10.609" d="M1523.86 1344.707c-7.72 86.043-77.512 154.204-164.268 159.371m-26.496-.394c-86.044-7.72-154.205-77.512-159.372-164.268m.395-26.495c7.72-86.044 77.512-154.205 164.267-159.373m26.496.395c86.044 7.72 154.205 77.512 159.373 164.268"/><path d="M1354.293 1504.315a179.743 179.743 0 0 1-10.608 0m-170.197-170.198a179.668 179.668 0 0 1 0-10.607m170.197-170.198a179.787 179.787 0 0 1 10.608 0m170.198 170.198a179.692 179.692 0 0 1 0 10.607"/></g></g></symbol><symbol id="icon-C" viewBox="0 0 87 94"><path fill="#241F21" d="M.003 47.277C-.27 21.78 20.336.725 46.193.448 62.714.272 77.35 8.555 85.747 21.216L64.362 36.71c-3.663-6.606-9.996-11.027-17.896-10.942-11.133.12-19.302 8.827-19.17 21.217.134 12.39 8.487 20.92 19.62 20.801 7.9-.085 14.137-4.64 17.657-11.325l21.712 15.033C78.162 84.332 63.708 92.93 47.188 93.105 21.33 93.382.276 72.775.003 47.277"/></symbol><symbol id="icon-L" viewBox="0 0 52 128"><path fill="#241F21" d="M.417 0v127.502h51.072v-10.596H11.552V0z"/></symbol><symbol id="icon-X" viewBox="0 0 81 81"><g fill="none" transform="translate(0 -.354)"><path fill="#FF6E5C" d="M80.636 6.487c0 1.53-.584 3.06-1.75 4.227L10.35 79.25a5.978 5.978 0 0 1-8.453-8.453L70.432 2.26a5.978 5.978 0 0 1 10.204 4.228"/><mask id="x-b" fill="#fff"><use xlink:href="#x-a"/></mask><path fill="#FF6E5C" d="M80.636 75.023a5.978 5.978 0 0 1-10.204 4.227L1.897 10.714A5.978 5.978 0 0 1 10.35 2.26l68.535 68.535a5.961 5.961 0 0 1 1.751 4.227" mask="url(#x-b)"/></g></symbol><symbol id="icon-logo" viewBox="0 0 240 60"><path d="M0 11.672C0 5.817 4.73 1.087 10.587 1.087c4.182 0 7.7 2.163 9.46 5.451l-3.634 2.02c-1.211-2.106-3.173-3.433-5.826-3.433-3.577 0-6.374 2.97-6.374 6.547 0 3.577 2.797 6.548 6.374 6.548 2.653 0 4.615-1.327 5.826-3.433l3.634 2.02c-1.76 3.287-5.278 5.45-9.46 5.45A10.574 10.574 0 0 1 0 11.673zm22.556 10.24V.855h3.951v7.845c.923-.98 2.336-1.528 3.923-1.528 3.634 0 5.768 2.538 5.768 6.374v8.364h-3.951v-7.7c0-2.048-.894-3.433-2.683-3.433-1.326 0-2.451.692-3.057 1.644v9.49h-3.951zm21.776-18.72a2.517 2.517 0 0 1-2.538 2.51c-1.356 0-2.51-1.125-2.51-2.51 0-1.384 1.154-2.509 2.51-2.509a2.517 2.517 0 0 1 2.538 2.51zm-4.5 18.72V7.49h3.952v14.421h-3.952zm21.315-3.837c-1.24 2.48-3.836 4.154-6.835 4.154-4.27 0-7.644-3.173-7.644-7.528 0-4.356 3.375-7.528 7.644-7.528 3 0 5.595 1.673 6.835 4.153l-3.432 1.846c-.577-1.327-1.817-2.307-3.403-2.307-2.077 0-3.663 1.615-3.663 3.836 0 2.22 1.586 3.836 3.663 3.836 1.586 0 2.826-.98 3.403-2.308l3.432 1.846zm12.432 2.77c-.837.836-2.164 1.384-3.692 1.384-4.269 0-7.124-3.49-7.124-7.528 0-4.038 2.855-7.528 7.124-7.528 1.528 0 2.855.548 3.692 1.355V7.49h3.951v14.421h-3.951v-1.067zm-6.72-6.144c0 2.134 1.47 3.922 3.605 3.922 1.528 0 2.451-.663 3.115-1.586v-4.701c-.664-.894-1.587-1.558-3.115-1.558-2.135 0-3.606 1.788-3.606 3.923zm28.438 6.403c0 5.105-3.922 6.691-7.557 6.691-2.365 0-4.759-.634-6.374-2.019l2.163-2.942a6.41 6.41 0 0 0 4.154 1.5c1.76 0 3.663-.98 3.663-3.201v-.894c-.837.836-2.135 1.384-3.721 1.384-4.153 0-7.24-3.173-7.21-7.21.028-4.039 3.057-7.24 7.21-7.24 1.586 0 2.884.548 3.72 1.355V7.49h3.952v13.614zM84.51 14.412c0 2.106 1.586 3.635 3.72 3.635 1.53 0 2.481-.693 3.116-1.616v-4.095c-.635-.894-1.587-1.558-3.115-1.558-2.135 0-3.721 1.5-3.721 3.634zm28.814.289c0 4.21-3.404 7.528-7.586 7.528s-7.585-3.317-7.585-7.528c0-4.211 3.403-7.528 7.585-7.528s7.586 3.317 7.586 7.528zm-11.191 0c0 2.22 1.529 3.836 3.605 3.836 2.077 0 3.577-1.615 3.577-3.836s-1.5-3.836-3.577-3.836c-2.076 0-3.605 1.615-3.605 3.836zm20.911 7.21V1.433h4.182v16.498h8.768v3.98h-12.95zm14.277-7.47c0-4.269 3.202-7.528 7.586-7.528 3.778 0 7.095 2.423 7.095 7.096 0 .346 0 .75-.058 1.355h-10.787c.231 1.933 1.933 3 3.836 3 1.789 0 3.087-.837 3.721-1.817l2.942 2.192c-1.327 1.932-3.663 3.23-6.692 3.23-4.297 0-7.643-2.97-7.643-7.528zm7.47-4.269c-1.47 0-3.115.75-3.49 2.51h6.75c-.346-1.702-1.789-2.51-3.26-2.51zm20.017 10.413c-.836.836-2.163 1.384-3.692 1.384-4.268 0-7.124-3.49-7.124-7.528 0-4.038 2.856-7.528 7.124-7.528 1.53 0 2.856.548 3.692 1.356V7.23h3.952v14.422h-3.952v-1.067zm-6.72-6.144c0 2.135 1.471 3.923 3.605 3.923 1.529 0 2.452-.664 3.115-1.587v-4.7c-.663-.895-1.586-1.558-3.115-1.558-2.134 0-3.605 1.788-3.605 3.922zm14.48 7.21V7.232h3.95v1.73c.49-1.038 1.846-1.904 3.346-1.904.721 0 1.356.145 1.673.26l-.606 3.72a4.143 4.143 0 0 0-1.21-.172c-1.097 0-2.51.461-3.202 1.615v9.172h-3.952zm11.161 0V7.232h3.952v1.21c.923-.98 2.336-1.528 3.922-1.528 3.634 0 5.769 2.538 5.769 6.374v8.365h-3.952V13.95c0-2.048-.894-3.432-2.682-3.432-1.327 0-2.452.692-3.057 1.644v9.489h-3.952zm21.777-18.718a2.517 2.517 0 0 1-2.539 2.51c-1.355 0-2.509-1.126-2.509-2.51 0-1.385 1.154-2.51 2.51-2.51a2.517 2.517 0 0 1 2.538 2.51zm-4.5 18.719V7.23h3.952v14.422h-3.952zm7.759 0V7.23h3.951v1.212c.923-.98 2.337-1.529 3.923-1.529 3.634 0 5.768 2.538 5.768 6.374v8.365h-3.951V13.95c0-2.048-.894-3.432-2.682-3.432-1.327 0-2.452.692-3.058 1.644v9.489h-3.951zm31.237-.808c0 5.105-3.923 6.692-7.557 6.692-2.365 0-4.76-.635-6.375-2.02l2.164-2.941a6.41 6.41 0 0 0 4.153 1.5c1.76 0 3.663-.981 3.663-3.202v-.894c-.836.836-2.134 1.384-3.72 1.384-4.154 0-7.24-3.172-7.211-7.21.028-4.038 3.057-7.24 7.21-7.24 1.587 0 2.885.548 3.721 1.356V7.23h3.952v13.614zm-10.788-6.691c0 2.105 1.587 3.634 3.721 3.634 1.529 0 2.48-.692 3.115-1.615v-4.096c-.634-.894-1.586-1.557-3.115-1.557-2.134 0-3.72 1.5-3.72 3.634zM1.212 54.129V33.65H13.96v3.98H5.394v4.212h6.836v3.98H5.394v4.327h8.566v3.98H1.212zm14.19 0l5.596-7.067-5.451-7.355h4.672l3.26 4.413 3.259-4.413h4.701l-5.451 7.355 5.595 7.067h-4.73l-3.346-4.269-3.345 4.269h-4.76zm30.891-3.836c-1.24 2.48-3.836 4.153-6.835 4.153-4.27 0-7.644-3.173-7.644-7.528 0-4.355 3.375-7.528 7.644-7.528 3 0 5.595 1.673 6.835 4.154l-3.432 1.845c-.577-1.326-1.817-2.307-3.403-2.307-2.077 0-3.664 1.615-3.664 3.836s1.587 3.836 3.664 3.836c1.586 0 2.826-.98 3.403-2.307l3.432 1.846zm2.538 3.836V33.074h3.952v7.845c.923-.98 2.336-1.529 3.923-1.529 3.634 0 5.768 2.538 5.768 6.374v8.365h-3.951v-7.701c0-2.048-.895-3.432-2.683-3.432-1.327 0-2.451.692-3.057 1.644v9.489H48.83zm27.17-1.067c-.836.836-2.163 1.384-3.692 1.384-4.268 0-7.124-3.49-7.124-7.528 0-4.038 2.856-7.528 7.124-7.528 1.53 0 2.856.548 3.692 1.356v-1.039h3.952V54.13H76v-1.067zm-6.72-6.144c0 2.135 1.471 3.923 3.605 3.923 1.529 0 2.452-.664 3.115-1.587v-4.7c-.663-.895-1.586-1.558-3.115-1.558-2.134 0-3.605 1.788-3.605 3.922zm14.48 7.21v-14.42h3.95v1.21c.924-.98 2.337-1.528 3.923-1.528 3.634 0 5.769 2.538 5.769 6.374v8.365H93.45v-7.701c0-2.048-.894-3.432-2.682-3.432-1.327 0-2.452.692-3.057 1.644v9.489H83.76zm31.236-.807c0 5.105-3.923 6.692-7.557 6.692-2.365 0-4.759-.635-6.374-2.02l2.163-2.941a6.41 6.41 0 0 0 4.153 1.5c1.76 0 3.663-.981 3.663-3.202v-.894c-.836.836-2.134 1.384-3.72 1.384-4.154 0-7.24-3.172-7.211-7.21.029-4.038 3.057-7.24 7.21-7.24 1.587 0 2.885.548 3.721 1.356v-1.039h3.952v13.614zM104.21 46.63c0 2.105 1.586 3.634 3.72 3.634 1.529 0 2.48-.692 3.115-1.615v-4.096c-.634-.894-1.586-1.557-3.115-1.557-2.134 0-3.72 1.5-3.72 3.634zm13.671.288c0-4.269 3.202-7.528 7.586-7.528 3.778 0 7.095 2.423 7.095 7.096 0 .346 0 .75-.058 1.355h-10.787c.23 1.933 1.933 3 3.836 3 1.789 0 3.086-.837 3.721-1.817l2.942 2.192c-1.327 1.932-3.663 3.23-6.692 3.23-4.297 0-7.643-2.97-7.643-7.528zm7.47-4.269c-1.47 0-3.115.75-3.49 2.51h6.75c-.346-1.702-1.789-2.51-3.26-2.51z" fill="#241F21"/></symbol><symbol id="mobile-logo" viewBox="0 0 35 185"><g fill="none"><g transform="translate(0 -.722)"><mask id="mobile-logo-b" fill="#fff"><use xlink:href="#mobile-logo-a"/></mask><path fill="#241F21" d="M.001 19.608C-.109 9.325 8.178.835 18.575.723c6.643-.07 12.528 3.27 15.905 8.374l-8.599 6.25c-1.473-2.665-4.019-4.447-7.196-4.414-4.478.048-7.76 3.56-7.708 8.557.053 4.995 3.411 8.436 7.89 8.388 3.176-.034 5.685-1.872 7.1-4.566l8.73 6.061c-3.267 5.178-9.079 8.644-15.722 8.715C8.577 38.2.11 29.89.001 19.608" mask="url(#mobile-logo-b)"/></g><path fill="#241F21" d="M12.986 67.926h4.478v47.145h16.06v4.273H12.986z"/><g fill="#FF6E5C"><path d="M31.122 184.278c-.615 0-1.23-.236-1.7-.706l-27.56-27.638a2.415 2.415 0 0 1 0-3.409 2.4 2.4 0 0 1 3.399 0l27.56 27.638a2.417 2.417 0 0 1 0 3.409 2.396 2.396 0 0 1-1.7.706"/><path d="M3.56 184.278a2.396 2.396 0 0 1-1.7-.706 2.417 2.417 0 0 1 0-3.409l27.562-27.638a2.4 2.4 0 0 1 3.399 0 2.417 2.417 0 0 1 0 3.409L5.26 183.572a2.396 2.396 0 0 1-1.7.706"/></g></g></symbol></svg>